<svg xmlns="http://www.w3.org/2000/svg" xmlns:xlink="http://www.w3.org/1999/xlink" width="1920" zoomAndPan="magnify" viewBox="0 0 1440 809.999993" height="1080" preserveAspectRatio="xMidYMid meet" version="1.0"><defs><filter x="0%" y="0%" width="100%" height="100%" id="9f2d44f00c"><feColorMatrix values="0 0 0 0 1 0 0 0 0 1 0 0 0 0 1 0 0 0 1 0" color-interpolation-filters="sRGB"/></filter><mask id="b57bac2026"><g filter="url(#9f2d44f00c)"><rect x="-144" width="1728" fill="#000000" y="-80.999999" height="971.999992" fill-opacity="0.2"/></g></mask><clipPath id="e7edd2937a"><path d="M 1 0 L 1439 0 L 1439 691.5 L 1 691.5 Z M 1 0 " clip-rule="nonzero"/></clipPath><clipPath id="fc0d8bce1d"><rect x="0" width="1440" y="0" height="692"/></clipPath></defs><rect x="-144" width="1728" fill="#ffffff" y="-80.999999" height="971.999992" fill-opacity="1"/><rect x="-144" width="1728" fill="#f6f7f4" y="-80.999999" height="971.999992" fill-opacity="1"/><g mask="url(#b57bac2026)"><g transform="matrix(1, 0, 0, 1, 0, 0.000000000000039746)"><g clip-path="url(#fc0d8bce1d)"><g clip-path="url(#e7edd2937a)"><path fill="#000000" d="M 419.789062 -0.183594 C 419.789062 5.144531 419.789062 10.476562 419.789062 15.808594 L 419.789062 15.8125 L 391.828125 15.808594 C 391.828125 20.085938 391.828125 24.367188 391.828125 28.648438 L 391.828125 28.652344 L 363.867188 27.800781 L 365.867188 475.574219 L 323.925781 331.648438 L 303.363281 330.960938 L 303.347656 330.964844 C 303.347656 316.066406 303.347656 301.167969 303.347656 286.269531 L 234.519531 286.269531 C 234.519531 300.398438 234.519531 314.53125 234.519531 328.664062 L 234.519531 328.667969 L 204.09375 327.648438 L 196.105469 235.695312 L 191.808594 235.785156 L 191.808594 235.789062 C 191.808594 232.824219 191.808594 229.859375 191.808594 226.898438 L 160.964844 226.894531 L 130.117188 226.894531 C 130.117188 230.289062 130.117188 233.679688 130.117188 237.070312 L 130.105469 237.078125 L 100.242188 237.695312 L 89.570312 397.890625 L 89.570312 397.894531 L 75.542969 397.890625 L 47.070312 397.890625 C 47.070312 414.378906 47.070312 430.871094 47.070312 447.359375 L 47.070312 447.367188 L 1.214844 447.09375 L 2.378906 691.464844 L 1438.351562 689.464844 L 1432.359375 103.761719 L 1424.394531 103.085938 L 1424.371094 103.089844 C 1424.367188 75.992188 1424.367188 48.898438 1424.367188 21.804688 L 1384.425781 21.804688 C 1384.425781 47.761719 1384.425781 73.722656 1384.425781 99.679688 L 1384.425781 99.683594 L 1371.109375 98.546875 L 1371.082031 98.550781 C 1371.082031 67.707031 1371.082031 36.867188 1371.082031 6.027344 L 1356.847656 6.027344 C 1356.847656 36.460938 1356.847656 66.894531 1356.847656 97.328125 L 1356.847656 97.335938 L 1338.492188 95.765625 L 1342.640625 324.269531 L 1342.640625 324.273438 L 1316.507812 324.265625 C 1316.507812 358.378906 1316.507812 392.488281 1316.507812 426.601562 L 1316.484375 426.605469 L 1288.5625 427.597656 L 1288.5625 427.605469 L 1288.5625 297.664062 L 1270.609375 297.296875 L 1270.585938 297.300781 C 1270.585938 282.761719 1270.585938 268.222656 1270.585938 253.6875 L 1226.648438 253.6875 C 1226.648438 267.925781 1226.648438 282.160156 1226.648438 296.398438 L 1226.648438 296.402344 L 1206.703125 295.992188 L 1206.675781 295.996094 C 1206.675781 279.226562 1206.675781 262.457031 1206.675781 245.691406 L 1206.652344 245.695312 C 1211.988281 245.691406 1217.320312 245.691406 1222.65625 245.691406 C 1222.65625 237.027344 1222.65625 228.367188 1222.65625 219.707031 L 1201.683594 219.703125 L 1180.714844 219.703125 C 1180.714844 228.367188 1180.714844 237.03125 1180.714844 245.691406 C 1186.699219 245.691406 1192.679688 245.691406 1198.664062 245.691406 L 1198.6875 245.695312 C 1198.6875 262.40625 1198.6875 279.117188 1198.6875 295.828125 L 1198.6875 295.832031 L 1190.699219 295.664062 L 1190.699219 331.398438 L 1180.738281 331.390625 L 1180.714844 331.398438 C 1180.714844 319.484375 1180.714844 307.574219 1180.714844 295.667969 L 1174.722656 295.664062 L 1168.730469 295.664062 C 1168.730469 334.980469 1168.730469 374.292969 1168.730469 413.609375 C 1172.726562 413.605469 1176.71875 413.605469 1180.714844 413.605469 C 1180.714844 404.410156 1180.714844 395.214844 1180.714844 386.015625 L 1180.691406 386.023438 C 1184.019531 386.019531 1187.347656 386.015625 1190.675781 386.015625 L 1190.699219 386.019531 L 1190.699219 575.527344 L 1152.824219 575.527344 L 1152.800781 575.53125 C 1152.800781 559.855469 1152.800781 544.183594 1152.800781 528.511719 L 1114.566406 528.511719 L 1114.566406 528.515625 L 1108.816406 407.609375 L 1094.859375 407.039062 L 1094.835938 407.042969 C 1094.835938 396.570312 1094.835938 386.097656 1094.835938 375.625 L 1014.949219 375.625 L 1008.980469 375.628906 L 1008.957031 375.625 C 1008.957031 367.628906 1008.957031 359.632812 1008.957031 351.640625 L 985.988281 351.636719 L 963.023438 351.636719 C 963.023438 359.632812 963.023438 367.628906 963.023438 375.625 L 963.023438 375.628906 L 935.0625 375.625 C 935.0625 383.917969 935.0625 392.214844 935.0625 400.511719 L 935.0625 400.515625 L 913.09375 399.613281 L 907.101562 479.570312 L 896.527344 489.320312 L 896.527344 489.324219 C 896.527344 423.222656 896.527344 357.117188 896.527344 291.019531 L 896.503906 291.023438 C 900.46875 291.019531 904.429688 291.019531 908.390625 291.015625 C 908.390625 276.769531 908.390625 262.519531 908.390625 248.273438 L 898.921875 248.269531 L 898.898438 248.277344 C 898.898438 241.941406 898.898438 235.605469 898.898438 229.273438 L 884.664062 229.269531 L 870.425781 229.269531 C 870.425781 235.601562 870.425781 241.9375 870.425781 248.269531 L 870.425781 248.273438 L 856.191406 248.269531 C 856.191406 262.519531 856.191406 276.769531 856.191406 291.019531 C 861.71875 291.019531 867.25 291.019531 872.777344 291.019531 L 872.800781 291.023438 C 872.800781 364.417969 872.800781 437.816406 872.800781 511.214844 L 872.777344 511.21875 L 831.207031 549.535156 L 831.207031 119.753906 L 813.359375 118.453125 L 813.339844 118.460938 C 813.339844 106.230469 813.339844 94 813.339844 81.773438 L 803.265625 81.773438 L 803.246094 81.777344 C 803.246094 71.78125 803.246094 61.785156 803.246094 51.789062 L 791.265625 51.789062 C 791.265625 61.785156 791.265625 71.777344 791.265625 81.773438 L 791.265625 81.777344 L 783.328125 81.773438 L 753.320312 81.773438 C 753.320312 92.542969 753.320312 103.3125 753.320312 114.085938 L 753.320312 114.089844 L 721.363281 111.757812 L 721.363281 407.609375 L 659.265625 405.390625 L 659.25 405.394531 C 659.25 391.808594 659.25 378.226562 659.25 364.644531 L 629.589844 364.640625 L 608.742188 364.640625 L 608.742188 364.644531 L 605.527344 203.710938 L 495.683594 199.714844 L 495.683594 31.796875 L 481.71875 31.375 L 481.703125 31.378906 C 481.703125 26.1875 481.703125 20.996094 481.703125 15.808594 L 473.730469 15.808594 L 473.714844 15.8125 C 473.714844 10.480469 473.714844 5.148438 473.714844 -0.183594 Z M 419.789062 -0.183594 " fill-opacity="1" fill-rule="nonzero"/></g><path fill="#ffffff" d="M 384.414062 60.007812 L 384.414062 72.644531 L 396.894531 72.648438 L 396.894531 60.007812 Z M 414.257812 62.398438 L 414.257812 74.925781 L 426.734375 74.929688 L 426.734375 62.398438 Z M 458.421875 76.734375 L 458.421875 91.429688 L 470.898438 91.4375 L 470.898438 76.734375 Z M 384.414062 91.597656 L 384.414062 104.234375 L 396.894531 104.242188 L 396.894531 91.597656 Z M 1377.1875 120.949219 L 1377.1875 132.652344 L 1388.722656 132.65625 L 1388.722656 120.949219 Z M 1406.964844 120.949219 L 1406.964844 132.710938 L 1418.5 132.71875 L 1418.5 120.949219 Z M 414.257812 125.039062 L 414.257812 137.566406 L 426.734375 137.574219 L 426.734375 125.039062 Z M 736.144531 134.625 L 736.144531 145.046875 L 746.460938 145.050781 L 746.460938 134.625 Z M 800.328125 141.570312 L 800.328125 152.265625 L 810.644531 152.269531 L 810.644531 141.570312 Z M 1377.1875 150.210938 L 1377.1875 161.917969 L 1388.722656 161.921875 L 1388.722656 150.210938 Z M 458.421875 150.222656 L 458.421875 164.917969 L 470.898438 164.921875 L 470.898438 150.222656 Z M 396.894531 154.785156 L 384.414062 154.789062 L 384.414062 167.421875 L 396.894531 167.425781 Z M 414.257812 156.359375 L 414.257812 168.890625 L 426.734375 168.894531 L 426.734375 156.359375 Z M 736.144531 160.675781 L 736.144531 171.097656 L 746.460938 171.101562 L 746.460938 160.675781 Z M 774.308594 167.613281 L 774.308594 178.320312 L 784.625 178.324219 L 784.625 167.613281 Z M 800.328125 168.304688 L 800.328125 178.996094 L 810.644531 179.003906 L 810.644531 168.304688 Z M 1406.964844 179.773438 L 1406.964844 191.539062 L 1418.5 191.542969 L 1418.5 179.773438 Z M 384.414062 186.375 L 384.414062 199.011719 L 396.894531 199.015625 L 396.894531 186.375 Z M 458.421875 186.964844 L 458.421875 201.660156 L 470.898438 201.664062 L 470.898438 186.964844 Z M 774.308594 194.378906 L 774.308594 205.082031 L 784.625 205.085938 L 784.625 194.378906 Z M 800.328125 195.035156 L 800.328125 205.730469 L 810.644531 205.734375 L 810.644531 195.035156 Z M 1377.1875 208.742188 L 1377.1875 220.445312 L 1388.722656 220.453125 L 1388.722656 208.742188 Z M 1406.964844 209.183594 L 1406.964844 220.949219 L 1418.5 220.953125 L 1418.5 209.183594 Z M 736.144531 212.78125 L 736.144531 223.199219 L 746.460938 223.207031 L 746.460938 212.78125 Z M 464.660156 217.464844 L 464.660156 229.949219 Z M 800.328125 221.769531 L 800.328125 232.464844 L 810.644531 232.46875 L 810.644531 221.769531 Z M 520.234375 226.445312 L 520.234375 243.109375 L 536.855469 243.113281 L 536.855469 226.445312 Z M 508.203125 249.191406 L 508.203125 249.195312 L 524.828125 249.195312 L 524.828125 249.191406 Z M 774.308594 247.90625 L 774.308594 258.609375 L 784.625 258.613281 L 784.625 247.90625 Z M 384.414062 249.558594 L 384.414062 262.195312 L 396.894531 262.199219 L 396.894531 249.558594 Z M 414.257812 250.324219 L 414.257812 262.851562 L 426.734375 262.855469 L 426.734375 250.324219 Z M 736.144531 264.882812 L 736.144531 275.304688 L 746.460938 275.308594 L 746.460938 264.882812 Z M 520.234375 268.105469 L 520.234375 284.769531 L 536.855469 284.773438 L 536.855469 268.105469 Z M 774.308594 274.667969 L 774.308594 285.375 L 784.625 285.378906 L 784.625 274.667969 Z M 163.328125 276.050781 L 163.328125 292.4375 L 178.769531 292.445312 L 178.769531 276.050781 Z M 384.414062 281.152344 L 384.414062 293.789062 L 396.894531 293.792969 L 396.894531 281.152344 Z M 414.257812 281.644531 L 414.257812 294.171875 L 426.734375 294.179688 L 426.734375 281.644531 Z M 568.355469 289.136719 L 568.355469 307.792969 L 584.980469 307.796875 L 584.980469 289.136719 Z M 1406.964844 297.421875 L 1406.964844 309.1875 L 1418.5 309.191406 L 1418.5 297.421875 Z M 774.308594 301.429688 L 774.308594 312.136719 L 784.625 312.140625 L 784.625 301.429688 Z M 800.328125 301.96875 L 800.328125 312.660156 L 810.644531 312.667969 L 810.644531 301.96875 Z M 414.257812 312.96875 L 414.257812 325.496094 L 426.734375 325.5 L 426.734375 312.96875 Z M 520.234375 309.765625 L 520.234375 326.425781 L 536.855469 326.429688 L 536.855469 309.765625 Z M 736.144531 316.984375 L 736.144531 327.40625 L 746.460938 327.414062 L 746.460938 316.984375 Z M 1230.667969 317.410156 L 1230.667969 329.996094 L 1242.203125 330 L 1242.203125 317.410156 Z M 1259.574219 317.410156 L 1259.574219 329.996094 L 1271.109375 330 L 1271.109375 317.410156 Z M 263.070312 309.328125 L 263.070312 332.789062 L 278.507812 332.789062 L 278.507812 309.328125 Z M 1377.1875 325.796875 L 1377.1875 337.503906 L 1388.722656 337.507812 L 1388.722656 325.796875 Z M 1406.964844 326.832031 L 1406.964844 338.597656 L 1418.5 338.601562 L 1418.5 326.832031 Z M 800.328125 328.703125 L 800.328125 339.394531 L 810.644531 339.398438 L 810.644531 328.703125 Z M 218.738281 342.605469 L 218.738281 342.613281 L 234.179688 342.613281 L 234.179688 342.605469 Z M 736.144531 343.039062 L 736.144531 353.460938 L 746.460938 353.464844 L 746.460938 343.039062 Z M 414.257812 344.289062 L 414.257812 356.816406 L 426.734375 356.820312 L 426.734375 344.289062 Z M 384.414062 344.335938 L 384.414062 356.972656 L 396.894531 356.976562 L 396.894531 344.335938 Z M 1199.695312 347.386719 L 1199.695312 360.203125 L 1211.230469 360.207031 L 1211.230469 347.386719 Z M 1259.574219 348.878906 L 1259.574219 361.464844 L 1271.109375 361.472656 L 1271.109375 348.878906 Z M 774.308594 354.960938 L 774.308594 365.664062 L 784.625 365.667969 L 784.625 354.957031 Z M 800.328125 355.433594 L 800.328125 366.128906 L 810.644531 366.132812 L 810.644531 355.433594 Z M 1377.1875 355.0625 L 1377.1875 366.765625 L 1388.722656 366.773438 L 1388.722656 355.0625 Z M 520.234375 351.421875 L 520.234375 368.085938 L 536.855469 368.089844 L 536.855469 351.421875 Z M 163.328125 357.984375 L 163.328125 374.371094 L 178.769531 374.378906 L 178.769531 357.984375 Z M 280.292969 360.238281 L 280.292969 375.683594 L 301.195312 375.683594 L 301.195312 360.238281 Z M 1199.695312 379.429688 L 1199.695312 392.246094 L 1211.230469 392.25 L 1211.230469 379.429688 Z M 774.308594 381.722656 L 774.308594 392.429688 L 784.625 392.429688 L 784.625 381.722656 Z M 800.328125 382.167969 L 800.328125 392.859375 L 810.644531 392.867188 L 810.644531 382.167969 Z M 1230.667969 380.335938 L 1230.667969 392.921875 L 1242.203125 392.929688 L 1242.203125 380.335938 Z M 568.355469 382.410156 L 568.355469 401.0625 L 584.980469 401.066406 L 584.980469 382.410156 Z M 736.144531 395.140625 L 736.144531 405.5625 L 746.460938 405.566406 L 746.460938 395.140625 Z M 637.105469 396.121094 L 620.492188 396.601562 L 620.976562 413.46875 L 637.59375 412.992188 Z M 163.328125 398.953125 L 163.328125 415.339844 L 178.769531 415.34375 L 178.769531 398.953125 Z M 414.257812 406.929688 L 414.257812 419.457031 L 426.734375 419.464844 L 426.734375 406.929688 Z M 800.328125 408.902344 L 800.328125 419.59375 L 810.644531 419.597656 L 810.644531 408.902344 Z M 384.414062 407.519531 L 384.414062 420.15625 L 396.894531 420.160156 L 396.894531 407.519531 Z M 1230.667969 411.800781 L 1230.667969 424.386719 L 1242.203125 424.390625 L 1242.203125 411.800781 Z M 1259.574219 411.816406 L 1259.574219 424.40625 L 1271.109375 424.410156 L 1271.109375 411.816406 Z M 1406.964844 415.070312 L 1406.964844 426.835938 L 1418.5 426.839844 L 1418.5 415.070312 Z M 262.851562 410.945312 L 261.265625 410.949219 L 261.28125 415.5 L 259.902344 415.5 L 259.902344 415.503906 L 261.28125 415.503906 L 261.28125 415.699219 L 256.539062 415.699219 L 256.539062 431.144531 L 275.546875 431.148438 L 275.550781 415.699219 L 262.863281 415.699219 L 262.863281 415.503906 L 275.34375 415.503906 L 275.34375 415.5 L 262.863281 415.5 Z M 304.0625 415.699219 L 304.0625 431.148438 L 323.070312 431.148438 L 323.070312 415.703125 Z M 988.15625 416.90625 L 988.15625 432.351562 L 1004.503906 432.351562 L 1004.503906 416.90625 Z M 1069.878906 416.902344 L 1069.878906 432.351562 L 1086.222656 432.355469 L 1086.222656 416.902344 Z M 947.296875 416.90625 L 947.296875 432.351562 L 963.640625 432.355469 L 963.640625 416.90625 Z M 568.355469 429.046875 L 568.355469 447.699219 L 584.980469 447.703125 L 584.980469 429.046875 Z M 520.234375 434.738281 L 520.234375 451.402344 L 536.855469 451.410156 L 536.855469 434.738281 Z M 384.414062 439.109375 L 384.414062 451.746094 L 396.894531 451.753906 L 396.894531 439.109375 Z M 1377.1875 442.855469 L 1377.1875 454.558594 L 1388.722656 454.566406 L 1388.722656 442.855469 Z M 638.320312 438.296875 L 621.707031 438.773438 L 622.191406 455.644531 L 638.808594 455.164062 Z M 1230.667969 443.265625 L 1230.667969 455.851562 L 1242.203125 455.855469 L 1242.203125 443.265625 Z M 1259.574219 443.285156 L 1259.574219 455.875 L 1271.109375 455.878906 L 1271.109375 443.285156 Z M 1199.695312 443.515625 L 1199.695312 456.332031 L 1211.230469 456.335938 L 1211.230469 443.515625 Z M 736.144531 447.246094 L 736.144531 457.664062 L 746.460938 457.667969 L 746.460938 447.246094 Z M 774.308594 462.011719 L 774.308594 472.71875 L 784.625 472.722656 L 784.625 462.011719 Z M 1072.28125 465.015625 L 1072.28125 480.464844 L 1091.507812 480.46875 L 1091.507812 465.015625 Z M 928.070312 465.015625 L 928.070312 480.464844 L 947.296875 480.46875 L 947.296875 465.015625 Z M 976.140625 465.015625 L 976.140625 480.464844 L 995.367188 480.46875 L 995.367188 465.015625 Z M 414.257812 469.574219 L 414.257812 482.101562 L 426.734375 482.105469 L 426.734375 469.574219 Z M 384.414062 470.703125 L 384.414062 483.339844 L 396.894531 483.34375 L 396.894531 470.703125 Z M 736.144531 473.296875 L 736.144531 483.714844 L 746.460938 483.722656 L 746.460938 473.296875 Z M 1377.1875 472.117188 L 1377.1875 483.824219 L 1388.722656 483.828125 L 1388.722656 472.117188 Z M 1406.964844 473.894531 L 1406.964844 485.660156 L 1418.5 485.664062 L 1418.5 473.894531 Z M 1259.574219 474.753906 L 1259.574219 487.34375 L 1271.109375 487.347656 L 1271.109375 474.753906 Z M 1199.695312 475.558594 L 1199.695312 488.375 L 1211.230469 488.378906 L 1211.230469 475.558594 Z M 297.703125 479.082031 L 297.703125 494.53125 L 314.800781 494.53125 L 314.800781 479.085938 Z M 340.449219 479.085938 L 340.449219 494.53125 L 357.546875 494.535156 L 357.546875 479.085938 Z M 163.328125 480.886719 L 163.328125 497.273438 L 178.769531 497.277344 L 178.769531 480.886719 Z M 800.328125 489.101562 L 800.328125 499.792969 L 810.644531 499.796875 L 810.644531 489.101562 Z M 1406.964844 503.308594 L 1406.964844 515.070312 L 1418.5 515.078125 L 1418.5 503.308594 Z M 21.320312 489.230469 L 21.320312 528.351562 L 48.875 528.359375 L 48.875 489.230469 Z M 520.234375 518.058594 L 520.234375 534.722656 L 536.855469 534.726562 L 536.855469 518.058594 Z M 736.144531 525.398438 L 736.144531 535.820312 L 746.460938 535.824219 L 746.460938 525.398438 Z M 640.75 522.644531 L 624.132812 523.125 L 624.621094 539.992188 L 641.234375 539.515625 Z M 1377.1875 530.648438 L 1377.1875 542.351562 L 1388.722656 542.355469 L 1388.722656 530.648438 Z M 1406.964844 532.71875 L 1406.964844 544.484375 L 1418.5 544.488281 L 1418.5 532.71875 Z M 904.035156 533.976562 L 904.035156 549.425781 L 921.597656 549.429688 L 921.597656 533.976562 Z M 991.839844 533.976562 L 991.839844 549.425781 L 1009.402344 549.429688 L 1009.402344 533.976562 Z M 1035.742188 533.976562 L 1035.742188 549.425781 L 1053.304688 549.429688 L 1053.304688 533.976562 Z M 1079.644531 533.976562 L 1079.644531 549.425781 L 1097.207031 549.429688 L 1097.207031 533.976562 Z M 1259.574219 537.695312 L 1259.574219 550.28125 L 1271.109375 550.285156 L 1271.109375 537.695312 Z M 1199.695312 539.644531 L 1199.695312 552.460938 L 1211.230469 552.464844 L 1211.230469 539.644531 Z M 774.308594 542.304688 L 774.308594 553.007812 L 784.625 553.011719 L 784.625 542.300781 Z M 350.824219 535.421875 L 350.820312 562.988281 L 379.316406 562.988281 L 379.316406 535.421875 Z M 137.128906 535.421875 L 137.128906 562.988281 L 165.621094 562.992188 L 165.621094 535.421875 Z M 279.59375 535.421875 L 279.589844 562.988281 L 308.082031 562.992188 L 308.082031 535.421875 Z M 1377.1875 559.910156 L 1377.1875 571.617188 L 1388.722656 571.621094 L 1388.722656 559.910156 Z M 1406.964844 562.132812 L 1406.964844 573.894531 L 1418.5 573.902344 L 1418.5 562.132812 Z M 1199.695312 571.6875 L 1199.695312 584.503906 L 1211.230469 584.511719 L 1211.230469 571.6875 Z M 1377.1875 589.175781 L 1377.1875 600.882812 L 1388.722656 600.886719 L 1388.722656 589.175781 Z M 1406.964844 591.542969 L 1406.964844 603.308594 L 1418.5 603.3125 L 1418.5 591.542969 Z M 774.308594 595.832031 L 774.308594 606.535156 L 784.625 606.539062 L 784.625 595.832031 Z M 800.328125 596.03125 L 800.328125 606.726562 L 810.644531 606.730469 L 810.644531 596.03125 Z M 784.078125 620.285156 L 774.851562 624.902344 Z M 198.730469 597.796875 L 198.730469 625.363281 L 229.898438 625.363281 L 229.898438 597.796875 Z M 120.808594 597.796875 L 120.808594 625.363281 L 151.976562 625.367188 L 151.976562 597.796875 Z M 276.652344 597.796875 L 276.652344 625.363281 L 307.820312 625.371094 L 307.820312 597.796875 Z M 1377.1875 618.441406 L 1377.1875 630.144531 L 1388.722656 630.152344 L 1388.722656 618.441406 Z M 745.917969 627.296875 L 736.6875 631.914062 Z M 1406.964844 620.957031 L 1406.964844 632.722656 L 1418.5 632.726562 L 1418.5 620.957031 Z M 1388.703125 647.222656 L 1377.207031 648.183594 L 1388.703125 647.226562 Z M 530.714844 635.144531 L 530.714844 662.714844 L 570.03125 662.71875 L 570.03125 635.148438 Z M 1021.441406 637.9375 L 1021.441406 665.503906 L 1056.761719 665.503906 L 1056.761719 637.9375 Z M 1198.050781 637.9375 L 1198.050781 665.503906 L 1233.371094 665.511719 L 1233.371094 637.9375 Z M 1198.050781 637.9375 " fill-opacity="1" fill-rule="nonzero"/></g></g></g></svg>