<svg xmlns="http://www.w3.org/2000/svg" xmlns:xlink="http://www.w3.org/1999/xlink" width="1920" zoomAndPan="magnify" viewBox="0 0 1440 809.999993" height="1080" preserveAspectRatio="xMidYMid meet" version="1.0"><defs><filter x="0%" y="0%" width="100%" height="100%" id="714bfb274c"><feColorMatrix values="0 0 0 0 1 0 0 0 0 1 0 0 0 0 1 0 0 0 1 0" color-interpolation-filters="sRGB"/></filter><mask id="2638d57041"><g filter="url(#714bfb274c)"><rect x="-144" width="1728" fill="#000000" y="-80.999999" height="971.999992" fill-opacity="0.4"/></g></mask><clipPath id="1051a03dea"><path d="M 11 19 L 122 19 L 122 131 L 11 131 Z M 11 19 " clip-rule="nonzero"/></clipPath><clipPath id="4f2186781b"><path d="M 141.292969 97.535156 L 52.753906 145.082031 L 0.238281 47.289062 L 88.777344 -0.257812 Z M 141.292969 97.535156 " clip-rule="nonzero"/></clipPath><clipPath id="48ea87ed22"><path d="M 141.292969 97.535156 L 52.753906 145.082031 L 0.238281 47.289062 L 88.777344 -0.257812 Z M 141.292969 97.535156 " clip-rule="nonzero"/></clipPath><clipPath id="6203a7ec1a"><path d="M 141.292969 97.535156 L 52.753906 145.082031 L 0.238281 47.289062 L 88.777344 -0.257812 Z M 141.292969 97.535156 " clip-rule="nonzero"/></clipPath><clipPath id="012dab0149"><rect x="0" width="142" y="0" height="146"/></clipPath><mask id="5424c06b0c"><g filter="url(#714bfb274c)"><rect x="-144" width="1728" fill="#000000" y="-80.999999" height="971.999992" fill-opacity="0.71"/></g></mask><clipPath id="83cb439c1d"><path d="M 1 0.914062 L 34.007812 0.914062 L 34.007812 10 L 1 10 Z M 1 0.914062 " clip-rule="nonzero"/></clipPath><clipPath id="0c0573d9c5"><rect x="0" width="36" y="0" height="16"/></clipPath><mask id="a49f1b7b18"><g filter="url(#714bfb274c)"><rect x="-144" width="1728" fill="#000000" y="-80.999999" height="971.999992" fill-opacity="0.35"/></g></mask><clipPath id="54d3dccc1c"><path d="M 2 0.640625 L 27.238281 0.640625 L 27.238281 8 L 2 8 Z M 2 0.640625 " clip-rule="nonzero"/></clipPath><clipPath id="a396049029"><rect x="0" width="29" y="0" height="12"/></clipPath><mask id="fd768a94d4"><g filter="url(#714bfb274c)"><rect x="-144" width="1728" fill="#000000" y="-80.999999" height="971.999992" fill-opacity="0.68"/></g></mask><clipPath id="f251668c11"><path d="M 182 0.183594 L 247.074219 0.183594 L 247.074219 19 L 182 19 Z M 182 0.183594 " clip-rule="nonzero"/></clipPath><clipPath id="8d33de9153"><rect x="0" width="248" y="0" height="139"/></clipPath><mask id="aff95bb860"><g filter="url(#714bfb274c)"><rect x="-144" width="1728" fill="#000000" y="-80.999999" height="971.999992" fill-opacity="0.47"/></g></mask><clipPath id="076734da7d"><path d="M 2 1.066406 L 34.285156 1.066406 L 34.285156 11 L 2 11 Z M 2 1.066406 " clip-rule="nonzero"/></clipPath><clipPath id="607b19992d"><rect x="0" width="36" y="0" height="16"/></clipPath><mask id="0df85c1bb5"><g filter="url(#714bfb274c)"><rect x="-144" width="1728" fill="#000000" y="-80.999999" height="971.999992" fill-opacity="0.47"/></g></mask><clipPath id="0556fbfa23"><path d="M 2 0.15625 L 34.277344 0.15625 L 34.277344 10 L 2 10 Z M 2 0.15625 " clip-rule="nonzero"/></clipPath><clipPath id="06250b5cac"><rect x="0" width="36" y="0" height="15"/></clipPath><mask id="98ef40ae9e"><g filter="url(#714bfb274c)"><rect x="-144" width="1728" fill="#000000" y="-80.999999" height="971.999992" fill-opacity="0.47"/></g></mask><clipPath id="476f64c0f8"><path d="M 1 0.234375 L 33.550781 0.234375 L 33.550781 10 L 1 10 Z M 1 0.234375 " clip-rule="nonzero"/></clipPath><clipPath id="0ad37a39ab"><rect x="0" width="35" y="0" height="15"/></clipPath><mask id="17cb7884e3"><g filter="url(#714bfb274c)"><rect x="-144" width="1728" fill="#000000" y="-80.999999" height="971.999992" fill-opacity="0.47"/></g></mask><clipPath id="884cb63b90"><path d="M 0 0.191406 L 33.015625 0.191406 L 33.015625 10 L 0 10 Z M 0 0.191406 " clip-rule="nonzero"/></clipPath><clipPath id="54ffc635e5"><rect x="0" width="35" y="0" height="15"/></clipPath></defs><g mask="url(#2638d57041)"><g transform="matrix(1, 0, 0, 1, 876, 0.000000000000039746)"><g clip-path="url(#012dab0149)"><g clip-path="url(#1051a03dea)"><g clip-path="url(#4f2186781b)"><g clip-path="url(#48ea87ed22)"><g clip-path="url(#6203a7ec1a)"><path fill="#000000" d="M 32.511719 42.421875 C 30.011719 43.761719 27.65625 45.328125 25.457031 47.121094 C 23.257812 48.917969 21.246094 50.902344 19.429688 53.085938 C 17.609375 55.265625 16.015625 57.601562 14.648438 60.089844 C 13.277344 62.582031 12.160156 65.179688 11.289062 67.882812 C 11.558594 65.695312 11.960938 63.53125 12.488281 61.390625 C 13.015625 59.25 13.671875 57.148438 14.453125 55.085938 C 15.230469 53.023438 16.128906 51.015625 17.148438 49.0625 C 18.167969 47.109375 19.300781 45.222656 20.546875 43.40625 C 21.792969 41.585938 23.140625 39.851562 24.59375 38.195312 C 26.042969 36.539062 27.589844 34.972656 29.230469 33.503906 C 30.867188 32.03125 32.589844 30.664062 34.394531 29.398438 C 36.195312 28.136719 38.066406 26.984375 40.007812 25.941406 C 66.941406 11.476562 100.527344 21.636719 115.023438 48.632812 C 129.519531 75.628906 119.4375 109.234375 92.503906 123.699219 C 90.566406 124.742188 88.570312 125.667969 86.519531 126.472656 C 84.46875 127.273438 82.378906 127.953125 80.246094 128.507812 C 78.117188 129.0625 75.957031 129.488281 73.777344 129.785156 C 71.59375 130.078125 69.398438 130.246094 67.195312 130.277344 C 64.996094 130.3125 62.796875 130.214844 60.605469 129.984375 C 58.414062 129.753906 56.242188 129.394531 54.09375 128.90625 C 51.945312 128.417969 49.832031 127.804688 47.753906 127.0625 C 45.679688 126.320312 43.652344 125.457031 41.679688 124.472656 C 44.414062 125.242188 47.199219 125.746094 50.027344 125.980469 C 52.859375 126.210938 55.6875 126.175781 58.511719 125.863281 C 61.332031 125.550781 64.097656 124.976562 66.808594 124.128906 C 69.519531 123.285156 72.125 122.191406 74.625 120.84375 C 96.230469 109.242188 104.3125 82.28125 92.6875 60.628906 C 81.058594 38.976562 54.117188 30.820312 32.511719 42.421875 Z M 32.511719 42.421875 " fill-opacity="1" fill-rule="nonzero"/></g></g></g></g></g></g></g><g mask="url(#5424c06b0c)"><g transform="matrix(1, 0, 0, 1, 825, 109)"><g clip-path="url(#0c0573d9c5)"><g clip-path="url(#83cb439c1d)"><path fill="#000000" d="M 31.609375 1.441406 C 30.785156 1.25 29.953125 1.113281 29.113281 1.03125 C 28.257812 0.945312 27.40625 0.925781 26.546875 0.972656 C 25.675781 1.023438 24.816406 1.15625 23.972656 1.375 C 23.863281 1.398438 23.757812 1.429688 23.652344 1.460938 C 23.546875 1.492188 23.441406 1.519531 23.335938 1.558594 C 23.230469 1.59375 23.125 1.625 23.019531 1.660156 L 22.707031 1.777344 C 22.289062 1.9375 21.882812 2.125 21.488281 2.335938 C 20.6875 2.761719 19.953125 3.285156 19.289062 3.90625 C 19.25 3.945312 19.207031 3.984375 19.167969 4.027344 L 19.046875 4.144531 C 18.964844 4.226562 18.890625 4.3125 18.8125 4.394531 C 18.730469 4.476562 18.65625 4.5625 18.582031 4.648438 C 18.503906 4.730469 18.433594 4.820312 18.363281 4.910156 C 18.292969 5 18.21875 5.085938 18.152344 5.179688 C 18.117188 5.222656 18.082031 5.269531 18.050781 5.316406 L 17.949219 5.453125 C 17.917969 5.5 17.886719 5.546875 17.851562 5.59375 C 17.820312 5.644531 17.789062 5.6875 17.757812 5.738281 C 17.695312 5.832031 17.632812 5.929688 17.574219 6.027344 C 17.457031 6.222656 17.34375 6.417969 17.238281 6.621094 C 17.222656 6.652344 17.207031 6.679688 17.191406 6.710938 C 17.070312 6.550781 16.941406 6.394531 16.808594 6.242188 C 16.527344 5.917969 16.226562 5.613281 15.902344 5.328125 C 15.578125 5.035156 15.234375 4.773438 14.867188 4.535156 C 14.5 4.292969 14.113281 4.082031 13.710938 3.910156 C 13.304688 3.734375 12.886719 3.597656 12.453125 3.5 C 11.59375 3.304688 10.722656 3.273438 9.847656 3.40625 C 9.425781 3.472656 9.011719 3.566406 8.605469 3.695312 C 8.207031 3.824219 7.816406 3.976562 7.4375 4.152344 C 7.25 4.242188 7.066406 4.332031 6.886719 4.433594 L 6.75 4.507812 C 6.703125 4.53125 6.660156 4.554688 6.617188 4.582031 L 6.351562 4.742188 C 6.265625 4.792969 6.179688 4.847656 6.09375 4.90625 L 5.839844 5.074219 L 5.589844 5.25 C 5.507812 5.308594 5.425781 5.363281 5.34375 5.425781 L 5.105469 5.613281 L 4.984375 5.703125 L 4.871094 5.800781 L 4.636719 5.992188 C 4.558594 6.054688 4.488281 6.125 4.410156 6.191406 L 4.1875 6.390625 C 4.113281 6.457031 4.042969 6.527344 3.96875 6.59375 C 3.894531 6.660156 3.824219 6.730469 3.753906 6.800781 C 3.679688 6.871094 3.613281 6.941406 3.542969 7.011719 C 2.984375 7.574219 2.464844 8.171875 1.980469 8.800781 C 2.605469 8.320312 3.230469 7.851562 3.871094 7.410156 C 3.953125 7.355469 4.03125 7.296875 4.113281 7.246094 C 4.195312 7.191406 4.273438 7.140625 4.355469 7.085938 C 4.433594 7.03125 4.515625 6.976562 4.597656 6.925781 L 4.84375 6.773438 C 5.171875 6.570312 5.503906 6.378906 5.835938 6.195312 C 5.917969 6.148438 6.003906 6.109375 6.089844 6.066406 L 6.339844 5.9375 L 6.597656 5.816406 C 6.683594 5.773438 6.765625 5.734375 6.851562 5.699219 L 7.109375 5.585938 C 7.195312 5.550781 7.285156 5.519531 7.371094 5.484375 C 7.542969 5.414062 7.71875 5.355469 7.890625 5.296875 C 7.980469 5.265625 8.066406 5.242188 8.15625 5.210938 L 8.285156 5.171875 L 8.417969 5.136719 C 8.507812 5.113281 8.59375 5.089844 8.683594 5.070312 L 8.945312 5.011719 C 9.296875 4.941406 9.648438 4.894531 10.003906 4.875 C 10.695312 4.832031 11.378906 4.910156 12.042969 5.105469 C 12.371094 5.203125 12.6875 5.328125 12.992188 5.484375 C 13.066406 5.519531 13.140625 5.5625 13.21875 5.601562 C 13.292969 5.640625 13.367188 5.6875 13.441406 5.730469 C 13.511719 5.773438 13.585938 5.820312 13.65625 5.871094 L 13.761719 5.941406 C 13.800781 5.964844 13.835938 5.992188 13.871094 6.015625 C 14.152344 6.222656 14.417969 6.441406 14.671875 6.683594 C 14.800781 6.804688 14.925781 6.929688 15.042969 7.058594 C 15.160156 7.1875 15.277344 7.320312 15.394531 7.457031 C 15.621094 7.734375 15.832031 8.019531 16.03125 8.316406 C 16.128906 8.464844 16.222656 8.617188 16.3125 8.769531 C 16.335938 8.816406 16.363281 8.863281 16.390625 8.90625 C 16.207031 8.929688 16.027344 8.960938 15.847656 8.992188 C 15.582031 9.042969 15.320312 9.105469 15.054688 9.179688 C 14.925781 9.21875 14.792969 9.257812 14.660156 9.304688 C 14.527344 9.351562 14.394531 9.40625 14.269531 9.46875 C 14.398438 9.519531 14.535156 9.5625 14.671875 9.597656 C 14.808594 9.632812 14.941406 9.664062 15.074219 9.691406 C 15.34375 9.746094 15.613281 9.789062 15.878906 9.816406 C 16.410156 9.871094 16.945312 9.886719 17.480469 9.867188 C 18.011719 9.847656 18.542969 9.789062 19.070312 9.691406 C 19.335938 9.644531 19.597656 9.582031 19.863281 9.507812 C 19.992188 9.46875 20.125 9.425781 20.257812 9.378906 C 20.390625 9.332031 20.523438 9.277344 20.648438 9.21875 C 20.515625 9.167969 20.382812 9.121094 20.246094 9.085938 C 20.109375 9.050781 19.976562 9.019531 19.84375 8.992188 C 19.574219 8.9375 19.304688 8.894531 19.039062 8.867188 C 18.816406 8.84375 18.597656 8.824219 18.378906 8.816406 L 18.390625 8.773438 C 18.417969 8.691406 18.445312 8.601562 18.472656 8.515625 C 18.53125 8.34375 18.601562 8.171875 18.671875 8 C 18.746094 7.828125 18.828125 7.660156 18.910156 7.492188 C 18.996094 7.324219 19.085938 7.164062 19.179688 7 C 19.371094 6.675781 19.578125 6.363281 19.808594 6.066406 C 20.035156 5.769531 20.28125 5.484375 20.546875 5.21875 C 21.601562 4.144531 22.933594 3.34375 24.402344 2.828125 C 25.144531 2.570312 25.90625 2.371094 26.683594 2.238281 C 27.476562 2.105469 28.277344 2.019531 29.082031 1.980469 C 29.890625 1.945312 30.707031 1.945312 31.53125 1.980469 C 32.351562 2.011719 33.179688 2.078125 34.011719 2.148438 C 33.222656 1.863281 32.425781 1.628906 31.609375 1.441406 Z M 31.609375 1.441406 " fill-opacity="1" fill-rule="nonzero"/></g></g></g></g><g mask="url(#a49f1b7b18)"><g transform="matrix(1, 0, 0, 1, 749, 410)"><g clip-path="url(#a396049029)"><g clip-path="url(#54d3dccc1c)"><path fill="#000000" d="M 25.351562 1.054688 C 24.703125 0.90625 24.046875 0.796875 23.386719 0.734375 C 22.714844 0.667969 22.042969 0.652344 21.371094 0.6875 C 20.683594 0.726562 20.007812 0.832031 19.34375 1 C 19.257812 1.019531 19.175781 1.046875 19.09375 1.070312 C 19.007812 1.09375 18.925781 1.117188 18.84375 1.144531 C 18.761719 1.171875 18.675781 1.199219 18.59375 1.226562 L 18.347656 1.316406 C 18.019531 1.445312 17.703125 1.589844 17.390625 1.753906 C 16.761719 2.085938 16.183594 2.496094 15.660156 2.984375 C 15.628906 3.015625 15.597656 3.046875 15.566406 3.078125 L 15.46875 3.171875 C 15.40625 3.234375 15.34375 3.300781 15.285156 3.363281 C 15.222656 3.429688 15.164062 3.496094 15.105469 3.5625 C 15.042969 3.628906 14.988281 3.699219 14.929688 3.769531 C 14.875 3.839844 14.820312 3.90625 14.765625 3.980469 C 14.738281 4.015625 14.710938 4.050781 14.683594 4.085938 L 14.605469 4.195312 C 14.582031 4.230469 14.554688 4.269531 14.53125 4.304688 C 14.503906 4.34375 14.480469 4.378906 14.453125 4.417969 C 14.40625 4.492188 14.359375 4.566406 14.3125 4.644531 C 14.21875 4.796875 14.128906 4.949219 14.046875 5.109375 C 14.035156 5.132812 14.023438 5.15625 14.011719 5.179688 C 13.914062 5.054688 13.8125 4.933594 13.710938 4.8125 C 13.488281 4.558594 13.25 4.320312 12.996094 4.097656 C 12.742188 3.867188 12.46875 3.660156 12.183594 3.476562 C 11.894531 3.285156 11.589844 3.121094 11.273438 2.984375 C 10.953125 2.847656 10.625 2.742188 10.285156 2.664062 C 9.605469 2.511719 8.921875 2.488281 8.234375 2.59375 C 7.902344 2.644531 7.578125 2.71875 7.257812 2.820312 C 6.941406 2.917969 6.636719 3.039062 6.339844 3.175781 C 6.191406 3.246094 6.042969 3.316406 5.902344 3.398438 L 5.796875 3.453125 C 5.761719 3.472656 5.726562 3.492188 5.691406 3.511719 L 5.484375 3.636719 C 5.414062 3.675781 5.347656 3.722656 5.28125 3.765625 L 5.082031 3.898438 L 4.886719 4.035156 C 4.820312 4.082031 4.757812 4.125 4.691406 4.175781 L 4.503906 4.320312 L 4.410156 4.390625 L 4.316406 4.464844 L 4.136719 4.617188 C 4.074219 4.664062 4.015625 4.71875 3.957031 4.769531 L 3.78125 4.925781 C 3.722656 4.980469 3.667969 5.035156 3.609375 5.085938 C 3.550781 5.140625 3.496094 5.195312 3.441406 5.25 C 3.382812 5.304688 3.328125 5.359375 3.273438 5.414062 C 2.835938 5.855469 2.425781 6.324219 2.046875 6.816406 C 2.539062 6.441406 3.03125 6.070312 3.535156 5.726562 C 3.597656 5.683594 3.660156 5.640625 3.722656 5.597656 C 3.785156 5.554688 3.851562 5.515625 3.914062 5.472656 C 3.976562 5.429688 4.039062 5.386719 4.105469 5.347656 L 4.296875 5.230469 C 4.554688 5.070312 4.816406 4.917969 5.078125 4.777344 C 5.144531 4.738281 5.210938 4.707031 5.277344 4.675781 L 5.476562 4.574219 L 5.675781 4.476562 C 5.742188 4.445312 5.808594 4.414062 5.878906 4.386719 L 6.082031 4.300781 C 6.148438 4.269531 6.21875 4.246094 6.285156 4.21875 C 6.421875 4.164062 6.558594 4.121094 6.695312 4.070312 C 6.765625 4.046875 6.832031 4.027344 6.902344 4.007812 L 7.003906 3.972656 L 7.109375 3.945312 C 7.179688 3.929688 7.246094 3.910156 7.316406 3.894531 L 7.523438 3.847656 C 7.800781 3.792969 8.074219 3.757812 8.355469 3.742188 C 8.902344 3.707031 9.4375 3.769531 9.960938 3.921875 C 10.21875 4 10.464844 4.097656 10.707031 4.21875 C 10.765625 4.246094 10.824219 4.28125 10.882812 4.3125 C 10.945312 4.339844 11 4.378906 11.058594 4.410156 C 11.117188 4.445312 11.171875 4.484375 11.230469 4.519531 L 11.3125 4.578125 C 11.34375 4.597656 11.371094 4.613281 11.398438 4.636719 C 11.621094 4.796875 11.828125 4.96875 12.027344 5.15625 C 12.128906 5.253906 12.226562 5.351562 12.320312 5.453125 C 12.410156 5.550781 12.507812 5.65625 12.59375 5.761719 C 12.773438 5.980469 12.941406 6.203125 13.097656 6.433594 C 13.175781 6.550781 13.246094 6.667969 13.316406 6.789062 C 13.339844 6.828125 13.359375 6.863281 13.378906 6.898438 C 13.238281 6.917969 13.09375 6.9375 12.953125 6.964844 C 12.746094 7.003906 12.539062 7.050781 12.332031 7.109375 C 12.226562 7.140625 12.121094 7.171875 12.019531 7.210938 C 11.914062 7.246094 11.8125 7.289062 11.710938 7.335938 C 11.816406 7.375 11.921875 7.410156 12.027344 7.4375 C 12.132812 7.464844 12.238281 7.492188 12.34375 7.511719 C 12.558594 7.554688 12.769531 7.585938 12.976562 7.609375 C 13.394531 7.652344 13.816406 7.664062 14.234375 7.648438 C 14.65625 7.632812 15.074219 7.589844 15.488281 7.511719 C 15.695312 7.472656 15.902344 7.425781 16.109375 7.367188 C 16.214844 7.335938 16.316406 7.304688 16.421875 7.265625 C 16.527344 7.230469 16.628906 7.1875 16.730469 7.140625 C 16.625 7.101562 16.519531 7.066406 16.410156 7.039062 C 16.304688 7.007812 16.199219 6.984375 16.09375 6.964844 C 15.882812 6.921875 15.671875 6.886719 15.460938 6.867188 C 15.289062 6.847656 15.117188 6.832031 14.945312 6.828125 L 14.953125 6.792969 C 14.972656 6.726562 14.996094 6.660156 15.019531 6.589844 C 15.066406 6.457031 15.117188 6.320312 15.175781 6.1875 C 15.234375 6.054688 15.296875 5.921875 15.363281 5.789062 C 15.429688 5.660156 15.5 5.53125 15.574219 5.40625 C 15.722656 5.152344 15.890625 4.90625 16.070312 4.675781 C 16.246094 4.441406 16.441406 4.21875 16.648438 4.011719 C 17.480469 3.171875 18.527344 2.542969 19.679688 2.140625 C 20.265625 1.9375 20.867188 1.785156 21.476562 1.679688 C 22.101562 1.574219 22.730469 1.507812 23.363281 1.476562 C 24 1.449219 24.640625 1.449219 25.289062 1.476562 C 25.9375 1.5 26.585938 1.550781 27.238281 1.609375 C 26.621094 1.386719 25.992188 1.203125 25.351562 1.054688 Z M 25.351562 1.054688 " fill-opacity="1" fill-rule="nonzero"/></g></g></g></g><g mask="url(#fd768a94d4)"><g transform="matrix(1, 0, 0, 1, 663, 174)"><g clip-path="url(#8d33de9153)"><g clip-path="url(#f251668c11)"><path fill="#000000" d="M 242.261719 1.230469 C 240.609375 0.851562 238.9375 0.578125 237.25 0.410156 C 235.539062 0.242188 233.824219 0.207031 232.109375 0.300781 C 230.359375 0.398438 228.636719 0.664062 226.9375 1.09375 C 226.722656 1.144531 226.507812 1.207031 226.296875 1.265625 C 226.085938 1.328125 225.871094 1.386719 225.660156 1.460938 C 225.453125 1.53125 225.238281 1.59375 225.03125 1.667969 L 224.402344 1.894531 C 223.566406 2.21875 222.75 2.585938 221.960938 3.003906 C 220.351562 3.855469 218.878906 4.898438 217.546875 6.136719 C 217.464844 6.214844 217.382812 6.289062 217.300781 6.371094 L 217.058594 6.609375 C 216.894531 6.769531 216.742188 6.9375 216.585938 7.101562 C 216.425781 7.265625 216.277344 7.4375 216.125 7.605469 C 215.972656 7.773438 215.828125 7.949219 215.6875 8.128906 C 215.542969 8.304688 215.398438 8.480469 215.265625 8.664062 C 215.195312 8.753906 215.125 8.84375 215.058594 8.9375 L 214.859375 9.210938 C 214.792969 9.304688 214.726562 9.398438 214.664062 9.492188 C 214.597656 9.585938 214.535156 9.679688 214.472656 9.773438 C 214.347656 9.964844 214.222656 10.15625 214.105469 10.347656 C 213.867188 10.738281 213.640625 11.132812 213.429688 11.535156 C 213.398438 11.59375 213.371094 11.652344 213.339844 11.710938 C 213.089844 11.394531 212.835938 11.085938 212.570312 10.78125 C 212.003906 10.136719 211.398438 9.527344 210.753906 8.957031 C 210.101562 8.382812 209.410156 7.855469 208.675781 7.378906 C 207.9375 6.898438 207.164062 6.484375 206.355469 6.136719 C 205.539062 5.789062 204.699219 5.515625 203.835938 5.320312 C 202.105469 4.9375 200.363281 4.875 198.609375 5.140625 C 197.761719 5.265625 196.929688 5.457031 196.113281 5.714844 C 195.3125 5.964844 194.53125 6.269531 193.769531 6.621094 C 193.394531 6.804688 193.019531 6.980469 192.664062 7.179688 L 192.390625 7.328125 C 192.300781 7.375 192.210938 7.425781 192.121094 7.476562 L 191.59375 7.792969 C 191.417969 7.894531 191.246094 8.007812 191.074219 8.121094 L 190.5625 8.453125 L 190.066406 8.804688 C 189.902344 8.921875 189.738281 9.035156 189.570312 9.160156 L 189.089844 9.523438 L 188.851562 9.710938 L 188.617188 9.898438 L 188.152344 10.28125 C 187.996094 10.40625 187.851562 10.542969 187.699219 10.675781 L 187.25 11.074219 C 187.097656 11.203125 186.957031 11.34375 186.8125 11.480469 C 186.664062 11.613281 186.519531 11.753906 186.378906 11.890625 C 186.234375 12.027344 186.09375 12.171875 185.953125 12.3125 C 184.835938 13.433594 183.792969 14.621094 182.824219 15.871094 C 184.078125 14.917969 185.332031 13.976562 186.617188 13.101562 C 186.78125 12.996094 186.933594 12.882812 187.097656 12.773438 C 187.261719 12.667969 187.421875 12.566406 187.585938 12.457031 C 187.746094 12.351562 187.90625 12.242188 188.070312 12.140625 L 188.5625 11.839844 C 189.222656 11.433594 189.886719 11.050781 190.558594 10.691406 C 190.722656 10.59375 190.894531 10.515625 191.0625 10.429688 L 191.570312 10.171875 L 192.082031 9.929688 C 192.253906 9.847656 192.421875 9.765625 192.597656 9.699219 L 193.113281 9.476562 C 193.285156 9.402344 193.460938 9.339844 193.632812 9.269531 C 193.980469 9.128906 194.332031 9.019531 194.679688 8.894531 C 194.855469 8.835938 195.03125 8.785156 195.207031 8.730469 L 195.46875 8.648438 L 195.734375 8.578125 C 195.914062 8.535156 196.085938 8.484375 196.265625 8.445312 L 196.792969 8.328125 C 197.496094 8.191406 198.203125 8.097656 198.914062 8.054688 C 200.308594 7.972656 201.671875 8.128906 203.011719 8.519531 C 203.664062 8.714844 204.296875 8.964844 204.910156 9.269531 C 205.0625 9.34375 205.214844 9.429688 205.363281 9.503906 C 205.515625 9.582031 205.660156 9.675781 205.808594 9.761719 C 205.957031 9.847656 206.101562 9.941406 206.246094 10.039062 L 206.460938 10.183594 C 206.53125 10.230469 206.601562 10.277344 206.671875 10.332031 C 207.238281 10.738281 207.777344 11.179688 208.285156 11.65625 C 208.539062 11.902344 208.789062 12.148438 209.023438 12.402344 C 209.261719 12.660156 209.5 12.925781 209.730469 13.199219 C 210.183594 13.746094 210.609375 14.3125 211.007812 14.90625 C 211.203125 15.199219 211.390625 15.5 211.570312 15.808594 C 211.625 15.898438 211.675781 15.988281 211.726562 16.078125 C 211.363281 16.128906 211.003906 16.183594 210.640625 16.25 C 210.109375 16.347656 209.578125 16.472656 209.050781 16.621094 C 208.789062 16.695312 208.523438 16.78125 208.257812 16.875 C 207.992188 16.964844 207.726562 17.074219 207.472656 17.195312 C 207.738281 17.296875 208.007812 17.382812 208.28125 17.453125 C 208.550781 17.523438 208.820312 17.585938 209.089844 17.640625 C 209.628906 17.753906 210.167969 17.835938 210.703125 17.890625 C 211.769531 18 212.839844 18.03125 213.914062 17.988281 C 214.984375 17.949219 216.050781 17.835938 217.105469 17.644531 C 217.636719 17.542969 218.164062 17.421875 218.691406 17.273438 C 218.957031 17.195312 219.222656 17.113281 219.484375 17.019531 C 219.753906 16.925781 220.015625 16.820312 220.273438 16.695312 C 220.007812 16.59375 219.738281 16.507812 219.460938 16.4375 C 219.191406 16.363281 218.921875 16.300781 218.652344 16.246094 C 218.113281 16.136719 217.578125 16.054688 217.039062 16 C 216.597656 15.953125 216.15625 15.917969 215.71875 15.902344 L 215.742188 15.8125 C 215.796875 15.648438 215.851562 15.472656 215.910156 15.300781 C 216.027344 14.957031 216.160156 14.613281 216.308594 14.273438 C 216.453125 13.933594 216.617188 13.601562 216.785156 13.265625 C 216.953125 12.933594 217.132812 12.609375 217.324219 12.285156 C 217.707031 11.640625 218.128906 11.023438 218.585938 10.429688 C 219.042969 9.835938 219.535156 9.273438 220.066406 8.742188 C 222.183594 6.609375 224.851562 5.011719 227.796875 3.988281 C 229.292969 3.472656 230.820312 3.082031 232.378906 2.816406 C 233.972656 2.550781 235.574219 2.378906 237.1875 2.304688 C 238.8125 2.230469 240.453125 2.234375 242.101562 2.300781 C 243.75 2.367188 245.40625 2.492188 247.078125 2.636719 C 245.5 2.070312 243.894531 1.601562 242.261719 1.230469 Z M 242.261719 1.230469 " fill-opacity="1" fill-rule="nonzero"/></g></g></g></g><g mask="url(#aff95bb860)"><g transform="matrix(1, 0, 0, 1, 762, 144)"><g clip-path="url(#607b19992d)"><g clip-path="url(#076734da7d)"><path fill="#000000" d="M 31.882812 1.597656 C 31.058594 1.40625 30.226562 1.265625 29.386719 1.183594 C 28.535156 1.097656 27.679688 1.082031 26.824219 1.128906 C 25.953125 1.175781 25.09375 1.308594 24.246094 1.527344 C 24.136719 1.550781 24.03125 1.582031 23.925781 1.613281 C 23.820312 1.644531 23.714844 1.675781 23.609375 1.710938 C 23.503906 1.746094 23.398438 1.777344 23.296875 1.816406 L 22.980469 1.929688 C 22.566406 2.089844 22.160156 2.277344 21.765625 2.488281 C 20.960938 2.914062 20.230469 3.4375 19.566406 4.0625 C 19.523438 4.101562 19.484375 4.140625 19.441406 4.179688 L 19.320312 4.300781 C 19.238281 4.378906 19.164062 4.464844 19.085938 4.546875 C 19.007812 4.628906 18.933594 4.714844 18.855469 4.800781 C 18.78125 4.886719 18.707031 4.972656 18.636719 5.0625 C 18.566406 5.152344 18.496094 5.242188 18.425781 5.332031 C 18.394531 5.378906 18.359375 5.421875 18.324219 5.46875 L 18.226562 5.609375 C 18.191406 5.65625 18.160156 5.703125 18.128906 5.75 C 18.09375 5.796875 18.0625 5.84375 18.03125 5.890625 C 17.96875 5.988281 17.910156 6.082031 17.847656 6.179688 C 17.730469 6.375 17.617188 6.574219 17.511719 6.777344 C 17.496094 6.804688 17.484375 6.835938 17.46875 6.863281 C 17.34375 6.707031 17.214844 6.550781 17.085938 6.398438 C 16.800781 6.074219 16.5 5.765625 16.179688 5.480469 C 15.851562 5.191406 15.507812 4.925781 15.144531 4.6875 C 14.777344 4.445312 14.390625 4.238281 13.984375 4.0625 C 13.578125 3.886719 13.160156 3.75 12.730469 3.652344 C 11.867188 3.457031 11 3.429688 10.125 3.558594 C 9.703125 3.625 9.289062 3.722656 8.878906 3.847656 C 8.480469 3.976562 8.089844 4.128906 7.710938 4.304688 C 7.527344 4.398438 7.339844 4.484375 7.160156 4.585938 L 7.023438 4.660156 C 6.980469 4.683594 6.933594 4.710938 6.890625 4.738281 L 6.628906 4.894531 C 6.539062 4.945312 6.453125 5.003906 6.371094 5.058594 L 6.113281 5.226562 L 5.867188 5.402344 C 5.785156 5.460938 5.703125 5.519531 5.621094 5.582031 L 5.378906 5.765625 L 5.144531 5.953125 L 4.914062 6.144531 C 4.835938 6.210938 4.761719 6.277344 4.6875 6.34375 L 4.460938 6.542969 C 4.386719 6.609375 4.316406 6.679688 4.242188 6.746094 C 4.171875 6.816406 4.097656 6.886719 4.027344 6.953125 C 3.957031 7.023438 3.886719 7.097656 3.816406 7.164062 C 3.257812 7.730469 2.738281 8.328125 2.253906 8.957031 C 2.882812 8.476562 3.507812 8.003906 4.148438 7.5625 C 4.230469 7.511719 4.304688 7.453125 4.386719 7.398438 C 4.46875 7.347656 4.550781 7.292969 4.628906 7.238281 C 4.710938 7.1875 4.789062 7.132812 4.871094 7.082031 L 5.117188 6.929688 C 5.445312 6.726562 5.777344 6.535156 6.109375 6.351562 C 6.191406 6.304688 6.28125 6.261719 6.363281 6.21875 L 6.617188 6.089844 L 6.871094 5.96875 C 6.957031 5.929688 7.042969 5.886719 7.128906 5.851562 L 7.386719 5.742188 C 7.472656 5.703125 7.558594 5.671875 7.644531 5.636719 C 7.816406 5.566406 7.992188 5.511719 8.167969 5.449219 C 8.253906 5.417969 8.339844 5.394531 8.429688 5.367188 L 8.558594 5.324219 L 8.691406 5.289062 C 8.78125 5.269531 8.867188 5.242188 8.957031 5.222656 L 9.21875 5.164062 C 9.570312 5.09375 9.921875 5.046875 10.277344 5.027344 C 10.972656 4.984375 11.652344 5.0625 12.320312 5.261719 C 12.644531 5.359375 12.960938 5.484375 13.265625 5.636719 C 13.34375 5.675781 13.417969 5.71875 13.492188 5.753906 C 13.570312 5.792969 13.640625 5.84375 13.714844 5.882812 C 13.789062 5.925781 13.859375 5.976562 13.933594 6.023438 L 14.039062 6.097656 C 14.074219 6.121094 14.109375 6.144531 14.144531 6.171875 C 14.425781 6.375 14.695312 6.597656 14.949219 6.835938 C 15.074219 6.960938 15.199219 7.085938 15.316406 7.214844 C 15.433594 7.339844 15.554688 7.476562 15.667969 7.613281 C 15.894531 7.886719 16.105469 8.171875 16.304688 8.46875 C 16.402344 8.617188 16.496094 8.769531 16.585938 8.921875 C 16.613281 8.96875 16.640625 9.015625 16.664062 9.0625 C 16.484375 9.085938 16.304688 9.113281 16.121094 9.148438 C 15.859375 9.195312 15.59375 9.257812 15.332031 9.332031 C 15.199219 9.371094 15.066406 9.414062 14.933594 9.460938 C 14.800781 9.507812 14.671875 9.558594 14.542969 9.621094 C 14.675781 9.671875 14.808594 9.714844 14.945312 9.75 C 15.082031 9.785156 15.214844 9.820312 15.351562 9.847656 C 15.617188 9.902344 15.886719 9.941406 16.152344 9.96875 C 16.6875 10.023438 17.21875 10.042969 17.753906 10.019531 C 18.289062 10 18.816406 9.941406 19.34375 9.847656 C 19.609375 9.796875 19.871094 9.734375 20.136719 9.660156 C 20.269531 9.621094 20.398438 9.578125 20.53125 9.53125 C 20.664062 9.484375 20.796875 9.433594 20.925781 9.371094 C 20.792969 9.320312 20.65625 9.277344 20.519531 9.242188 C 20.386719 9.203125 20.25 9.171875 20.117188 9.144531 C 19.847656 9.089844 19.578125 9.046875 19.3125 9.019531 C 19.09375 8.996094 18.871094 8.980469 18.652344 8.972656 L 18.667969 8.925781 C 18.691406 8.84375 18.71875 8.757812 18.75 8.667969 C 18.808594 8.496094 18.875 8.324219 18.949219 8.152344 C 19.019531 7.984375 19.101562 7.8125 19.183594 7.648438 C 19.269531 7.480469 19.359375 7.316406 19.453125 7.152344 C 19.644531 6.828125 19.855469 6.519531 20.082031 6.21875 C 20.3125 5.921875 20.558594 5.640625 20.820312 5.371094 C 21.875 4.300781 23.207031 3.496094 24.675781 2.980469 C 25.421875 2.722656 26.183594 2.527344 26.960938 2.390625 C 27.753906 2.257812 28.550781 2.171875 29.355469 2.136719 C 30.164062 2.097656 30.984375 2.097656 31.804688 2.132812 C 32.628906 2.167969 33.453125 2.230469 34.285156 2.304688 C 33.5 2.019531 32.699219 1.78125 31.882812 1.597656 Z M 31.882812 1.597656 " fill-opacity="1" fill-rule="nonzero"/></g></g></g></g><g mask="url(#0df85c1bb5)"><g transform="matrix(1, 0, 0, 1, 165, 160)"><g clip-path="url(#06250b5cac)"><g clip-path="url(#0556fbfa23)"><path fill="#000000" d="M 31.878906 0.683594 C 31.054688 0.492188 30.222656 0.355469 29.382812 0.273438 C 28.527344 0.1875 27.675781 0.167969 26.820312 0.214844 C 25.945312 0.265625 25.085938 0.398438 24.242188 0.617188 C 24.132812 0.640625 24.027344 0.671875 23.921875 0.703125 C 23.816406 0.734375 23.710938 0.765625 23.605469 0.800781 C 23.5 0.835938 23.394531 0.867188 23.289062 0.90625 L 22.976562 1.019531 C 22.558594 1.179688 22.15625 1.367188 21.761719 1.578125 C 20.957031 2.003906 20.222656 2.527344 19.5625 3.152344 C 19.519531 3.191406 19.480469 3.226562 19.4375 3.269531 L 19.316406 3.390625 C 19.234375 3.46875 19.160156 3.554688 19.082031 3.636719 C 19.003906 3.71875 18.929688 3.804688 18.851562 3.890625 C 18.777344 3.972656 18.703125 4.0625 18.632812 4.152344 C 18.5625 4.242188 18.488281 4.328125 18.421875 4.421875 C 18.386719 4.46875 18.351562 4.511719 18.320312 4.558594 L 18.21875 4.699219 C 18.1875 4.742188 18.15625 4.789062 18.121094 4.839844 C 18.089844 4.886719 18.058594 4.933594 18.027344 4.980469 C 17.964844 5.074219 17.902344 5.171875 17.84375 5.269531 C 17.726562 5.464844 17.613281 5.664062 17.507812 5.867188 C 17.492188 5.894531 17.476562 5.921875 17.464844 5.953125 C 17.339844 5.792969 17.210938 5.640625 17.078125 5.488281 C 16.796875 5.160156 16.496094 4.855469 16.175781 4.570312 C 15.847656 4.28125 15.503906 4.015625 15.140625 3.777344 C 14.769531 3.535156 14.386719 3.328125 13.980469 3.152344 C 13.574219 2.976562 13.15625 2.839844 12.726562 2.742188 C 11.863281 2.546875 10.992188 2.515625 10.121094 2.648438 C 9.699219 2.714844 9.28125 2.808594 8.875 2.9375 C 8.476562 3.066406 8.085938 3.21875 7.707031 3.394531 C 7.523438 3.488281 7.335938 3.574219 7.15625 3.675781 L 7.019531 3.75 C 6.976562 3.773438 6.929688 3.796875 6.886719 3.824219 L 6.625 3.984375 C 6.535156 4.035156 6.449219 4.089844 6.363281 4.148438 L 6.109375 4.316406 L 5.863281 4.492188 C 5.78125 4.550781 5.699219 4.605469 5.617188 4.671875 L 5.375 4.855469 L 5.257812 4.945312 L 5.140625 5.042969 L 4.90625 5.234375 C 4.828125 5.296875 4.757812 5.367188 4.679688 5.433594 L 4.457031 5.632812 C 4.382812 5.699219 4.3125 5.769531 4.238281 5.835938 C 4.164062 5.90625 4.09375 5.972656 4.023438 6.042969 C 3.953125 6.113281 3.882812 6.183594 3.8125 6.253906 C 3.253906 6.820312 2.734375 7.414062 2.25 8.046875 C 2.878906 7.566406 3.503906 7.09375 4.140625 6.652344 C 4.222656 6.597656 4.300781 6.542969 4.382812 6.488281 C 4.464844 6.433594 4.542969 6.382812 4.625 6.328125 C 4.707031 6.277344 4.785156 6.21875 4.867188 6.171875 L 5.113281 6.015625 C 5.441406 5.816406 5.773438 5.621094 6.105469 5.441406 C 6.1875 5.390625 6.273438 5.351562 6.359375 5.308594 L 6.609375 5.179688 L 6.867188 5.058594 C 6.953125 5.015625 7.035156 4.976562 7.121094 4.941406 L 7.382812 4.828125 C 7.464844 4.792969 7.554688 4.761719 7.640625 4.726562 C 7.8125 4.65625 7.988281 4.597656 8.160156 4.539062 C 8.25 4.507812 8.335938 4.484375 8.425781 4.457031 L 8.554688 4.414062 L 8.6875 4.378906 C 8.777344 4.355469 8.863281 4.332031 8.953125 4.3125 L 9.214844 4.253906 C 9.566406 4.183594 9.917969 4.136719 10.273438 4.117188 C 10.964844 4.074219 11.648438 4.152344 12.3125 4.347656 C 12.640625 4.445312 12.957031 4.574219 13.261719 4.726562 C 13.335938 4.761719 13.410156 4.804688 13.488281 4.84375 C 13.5625 4.882812 13.636719 4.929688 13.710938 4.972656 C 13.785156 5.015625 13.855469 5.066406 13.925781 5.113281 L 14.035156 5.183594 C 14.070312 5.207031 14.105469 5.234375 14.140625 5.257812 C 14.421875 5.464844 14.691406 5.6875 14.941406 5.925781 C 15.070312 6.050781 15.195312 6.171875 15.3125 6.300781 C 15.429688 6.429688 15.550781 6.566406 15.664062 6.699219 C 15.890625 6.976562 16.101562 7.261719 16.300781 7.558594 C 16.398438 7.707031 16.492188 7.859375 16.582031 8.011719 C 16.609375 8.058594 16.632812 8.105469 16.660156 8.148438 C 16.480469 8.171875 16.296875 8.203125 16.117188 8.234375 C 15.851562 8.285156 15.589844 8.347656 15.324219 8.421875 C 15.195312 8.460938 15.0625 8.503906 14.929688 8.546875 C 14.796875 8.59375 14.664062 8.648438 14.539062 8.710938 C 14.671875 8.761719 14.804688 8.804688 14.941406 8.839844 C 15.078125 8.875 15.210938 8.90625 15.34375 8.933594 C 15.613281 8.988281 15.882812 9.03125 16.148438 9.058594 C 16.679688 9.113281 17.214844 9.132812 17.75 9.109375 C 18.28125 9.089844 18.8125 9.03125 19.339844 8.9375 C 19.605469 8.886719 19.867188 8.824219 20.132812 8.75 C 20.261719 8.710938 20.394531 8.667969 20.527344 8.621094 C 20.660156 8.574219 20.792969 8.519531 20.917969 8.460938 C 20.789062 8.410156 20.652344 8.367188 20.515625 8.328125 C 20.378906 8.292969 20.246094 8.261719 20.113281 8.234375 C 19.84375 8.179688 19.574219 8.136719 19.308594 8.109375 C 19.085938 8.085938 18.867188 8.070312 18.648438 8.0625 L 18.660156 8.015625 C 18.6875 7.933594 18.714844 7.84375 18.742188 7.757812 C 18.800781 7.585938 18.871094 7.414062 18.941406 7.242188 C 19.015625 7.070312 19.097656 6.902344 19.179688 6.734375 C 19.265625 6.566406 19.355469 6.40625 19.449219 6.242188 C 19.640625 5.917969 19.851562 5.609375 20.078125 5.308594 C 20.304688 5.011719 20.550781 4.726562 20.816406 4.460938 C 21.871094 3.386719 23.203125 2.585938 24.671875 2.070312 C 25.414062 1.8125 26.175781 1.613281 26.953125 1.480469 C 27.746094 1.347656 28.546875 1.261719 29.351562 1.222656 C 30.160156 1.1875 30.976562 1.1875 31.800781 1.222656 C 32.621094 1.253906 33.449219 1.320312 34.28125 1.390625 C 33.496094 1.109375 32.695312 0.871094 31.878906 0.683594 Z M 31.878906 0.683594 " fill-opacity="1" fill-rule="nonzero"/></g></g></g></g><g mask="url(#98ef40ae9e)"><g transform="matrix(1, 0, 0, 1, 1265, 202)"><g clip-path="url(#0ad37a39ab)"><g clip-path="url(#476f64c0f8)"><path fill="#000000" d="M 31.148438 0.761719 C 30.324219 0.570312 29.492188 0.433594 28.652344 0.351562 C 27.796875 0.265625 26.945312 0.246094 26.089844 0.292969 C 25.214844 0.34375 24.355469 0.476562 23.511719 0.695312 C 23.402344 0.71875 23.296875 0.75 23.191406 0.78125 C 23.085938 0.8125 22.980469 0.84375 22.875 0.878906 C 22.769531 0.914062 22.664062 0.945312 22.558594 0.984375 L 22.246094 1.097656 C 21.832031 1.257812 21.425781 1.445312 21.03125 1.65625 C 20.226562 2.082031 19.496094 2.605469 18.832031 3.230469 C 18.789062 3.269531 18.75 3.304688 18.707031 3.347656 L 18.585938 3.464844 C 18.503906 3.546875 18.429688 3.632812 18.351562 3.714844 C 18.273438 3.796875 18.199219 3.882812 18.121094 3.96875 C 18.046875 4.050781 17.972656 4.140625 17.902344 4.230469 C 17.832031 4.320312 17.757812 4.40625 17.691406 4.5 C 17.65625 4.546875 17.625 4.589844 17.589844 4.636719 L 17.488281 4.773438 C 17.457031 4.820312 17.425781 4.867188 17.394531 4.914062 C 17.359375 4.964844 17.328125 5.011719 17.296875 5.058594 C 17.234375 5.152344 17.171875 5.25 17.113281 5.347656 C 16.996094 5.542969 16.882812 5.742188 16.777344 5.945312 C 16.761719 5.972656 16.75 6 16.734375 6.03125 C 16.609375 5.871094 16.480469 5.71875 16.347656 5.566406 C 16.066406 5.238281 15.765625 4.933594 15.445312 4.648438 C 15.117188 4.359375 14.773438 4.09375 14.410156 3.855469 C 14.039062 3.613281 13.65625 3.402344 13.25 3.230469 C 12.84375 3.054688 12.425781 2.917969 11.996094 2.820312 C 11.132812 2.625 10.261719 2.59375 9.390625 2.726562 C 8.96875 2.792969 8.550781 2.886719 8.144531 3.015625 C 7.746094 3.144531 7.355469 3.296875 6.976562 3.472656 C 6.792969 3.5625 6.605469 3.652344 6.425781 3.753906 L 6.289062 3.828125 C 6.246094 3.851562 6.199219 3.875 6.15625 3.902344 L 5.894531 4.0625 C 5.804688 4.113281 5.71875 4.167969 5.632812 4.226562 L 5.378906 4.394531 L 5.132812 4.570312 C 5.050781 4.628906 4.96875 4.683594 4.886719 4.746094 L 4.644531 4.933594 L 4.527344 5.023438 L 4.410156 5.121094 L 4.175781 5.3125 C 4.097656 5.375 4.027344 5.445312 3.949219 5.511719 L 3.726562 5.710938 C 3.652344 5.777344 3.582031 5.847656 3.507812 5.914062 C 3.4375 5.980469 3.363281 6.050781 3.292969 6.121094 C 3.222656 6.191406 3.152344 6.261719 3.082031 6.332031 C 2.523438 6.898438 2.003906 7.492188 1.519531 8.125 C 2.148438 7.640625 2.773438 7.171875 3.410156 6.730469 C 3.492188 6.675781 3.570312 6.621094 3.652344 6.566406 C 3.734375 6.511719 3.8125 6.460938 3.894531 6.40625 C 3.976562 6.351562 4.054688 6.296875 4.136719 6.25 L 4.382812 6.09375 C 4.710938 5.894531 5.042969 5.699219 5.375 5.519531 C 5.457031 5.46875 5.542969 5.429688 5.628906 5.386719 L 5.878906 5.257812 L 6.136719 5.136719 C 6.222656 5.09375 6.304688 5.054688 6.394531 5.019531 L 6.652344 4.90625 C 6.738281 4.871094 6.824219 4.839844 6.910156 4.804688 C 7.082031 4.734375 7.257812 4.675781 7.429688 4.617188 C 7.519531 4.585938 7.605469 4.5625 7.695312 4.53125 L 7.824219 4.492188 L 7.957031 4.457031 C 8.046875 4.433594 8.132812 4.410156 8.222656 4.390625 L 8.484375 4.332031 C 8.835938 4.261719 9.1875 4.214844 9.542969 4.195312 C 10.234375 4.152344 10.917969 4.230469 11.582031 4.425781 C 11.910156 4.523438 12.226562 4.652344 12.53125 4.804688 C 12.609375 4.839844 12.683594 4.882812 12.757812 4.921875 C 12.832031 4.960938 12.90625 5.007812 12.980469 5.050781 C 13.054688 5.09375 13.125 5.140625 13.195312 5.191406 L 13.304688 5.261719 C 13.339844 5.285156 13.375 5.3125 13.410156 5.335938 C 13.691406 5.542969 13.960938 5.761719 14.210938 6.003906 C 14.339844 6.128906 14.464844 6.25 14.582031 6.378906 C 14.699219 6.507812 14.820312 6.640625 14.933594 6.777344 C 15.160156 7.054688 15.371094 7.339844 15.570312 7.636719 C 15.667969 7.785156 15.761719 7.9375 15.851562 8.089844 C 15.878906 8.136719 15.902344 8.183594 15.929688 8.226562 C 15.75 8.25 15.566406 8.28125 15.386719 8.3125 C 15.121094 8.363281 14.859375 8.425781 14.59375 8.5 C 14.464844 8.539062 14.332031 8.578125 14.199219 8.625 C 14.066406 8.671875 13.9375 8.726562 13.808594 8.789062 C 13.941406 8.839844 14.074219 8.882812 14.210938 8.917969 C 14.347656 8.953125 14.480469 8.984375 14.613281 9.011719 C 14.882812 9.066406 15.152344 9.109375 15.417969 9.136719 C 15.949219 9.191406 16.484375 9.207031 17.019531 9.1875 C 17.554688 9.167969 18.082031 9.109375 18.609375 9.011719 C 18.875 8.964844 19.136719 8.902344 19.402344 8.828125 C 19.535156 8.789062 19.664062 8.746094 19.796875 8.699219 C 19.929688 8.652344 20.0625 8.597656 20.191406 8.539062 C 20.058594 8.488281 19.921875 8.441406 19.785156 8.40625 C 19.648438 8.371094 19.515625 8.339844 19.382812 8.3125 C 19.113281 8.257812 18.84375 8.214844 18.578125 8.1875 C 18.359375 8.164062 18.136719 8.144531 17.917969 8.140625 L 17.929688 8.09375 C 17.957031 8.011719 17.984375 7.921875 18.011719 7.835938 C 18.074219 7.664062 18.140625 7.492188 18.210938 7.320312 C 18.285156 7.148438 18.367188 6.980469 18.449219 6.8125 C 18.535156 6.644531 18.625 6.484375 18.71875 6.320312 C 18.910156 5.996094 19.121094 5.683594 19.347656 5.386719 C 19.574219 5.089844 19.820312 4.804688 20.085938 4.539062 C 21.140625 3.464844 22.472656 2.664062 23.941406 2.148438 C 24.6875 1.890625 25.445312 1.691406 26.222656 1.558594 C 27.019531 1.425781 27.816406 1.339844 28.621094 1.300781 C 29.429688 1.265625 30.25 1.265625 31.070312 1.300781 C 31.890625 1.332031 32.71875 1.398438 33.550781 1.46875 C 32.765625 1.183594 31.964844 0.949219 31.148438 0.761719 Z M 31.148438 0.761719 " fill-opacity="1" fill-rule="nonzero"/></g></g></g></g><g mask="url(#17cb7884e3)"><g transform="matrix(1, 0, 0, 1, 0, 236)"><g clip-path="url(#54ffc635e5)"><g clip-path="url(#884cb63b90)"><path fill="#000000" d="M 30.617188 0.722656 C 29.792969 0.53125 28.960938 0.390625 28.121094 0.308594 C 27.265625 0.222656 26.414062 0.207031 25.554688 0.253906 C 24.683594 0.300781 23.824219 0.433594 22.980469 0.652344 C 22.871094 0.675781 22.765625 0.707031 22.660156 0.738281 C 22.554688 0.769531 22.449219 0.800781 22.34375 0.835938 C 22.238281 0.871094 22.132812 0.902344 22.027344 0.941406 L 21.714844 1.054688 C 21.296875 1.214844 20.890625 1.402344 20.496094 1.613281 C 19.695312 2.039062 18.960938 2.5625 18.296875 3.1875 C 18.257812 3.226562 18.214844 3.265625 18.175781 3.304688 L 18.054688 3.425781 C 17.972656 3.503906 17.898438 3.589844 17.820312 3.671875 C 17.742188 3.753906 17.667969 3.839844 17.589844 3.925781 C 17.511719 4.011719 17.441406 4.097656 17.371094 4.1875 C 17.300781 4.277344 17.226562 4.367188 17.160156 4.457031 C 17.125 4.503906 17.089844 4.546875 17.058594 4.59375 L 16.957031 4.734375 C 16.925781 4.78125 16.894531 4.828125 16.859375 4.875 C 16.828125 4.921875 16.796875 4.96875 16.765625 5.015625 C 16.703125 5.113281 16.640625 5.207031 16.582031 5.304688 C 16.464844 5.5 16.351562 5.699219 16.246094 5.902344 C 16.230469 5.929688 16.214844 5.960938 16.199219 5.988281 C 16.078125 5.832031 15.949219 5.675781 15.816406 5.523438 C 15.535156 5.199219 15.234375 4.890625 14.910156 4.605469 C 14.585938 4.316406 14.242188 4.050781 13.875 3.8125 C 13.507812 3.570312 13.125 3.363281 12.71875 3.1875 C 12.3125 3.011719 11.894531 2.875 11.460938 2.777344 C 10.601562 2.582031 9.730469 2.554688 8.855469 2.683594 C 8.433594 2.75 8.019531 2.847656 7.613281 2.972656 C 7.214844 3.101562 6.824219 3.253906 6.445312 3.429688 C 6.257812 3.523438 6.074219 3.609375 5.894531 3.710938 L 5.757812 3.785156 C 5.710938 3.808594 5.667969 3.835938 5.625 3.863281 L 5.359375 4.019531 C 5.273438 4.070312 5.1875 4.125 5.101562 4.183594 L 4.847656 4.351562 L 4.597656 4.527344 C 4.515625 4.585938 4.433594 4.644531 4.351562 4.707031 L 4.113281 4.890625 L 3.992188 4.984375 L 3.878906 5.078125 L 3.644531 5.269531 C 3.566406 5.335938 3.496094 5.402344 3.417969 5.46875 L 3.195312 5.667969 C 3.121094 5.734375 3.050781 5.804688 2.976562 5.871094 C 2.902344 5.941406 2.832031 6.011719 2.761719 6.078125 C 2.6875 6.148438 2.621094 6.21875 2.550781 6.289062 C 1.992188 6.855469 1.472656 7.453125 0.988281 8.082031 C 1.613281 7.601562 2.238281 7.128906 2.878906 6.6875 C 2.960938 6.636719 3.039062 6.578125 3.121094 6.523438 C 3.203125 6.472656 3.28125 6.417969 3.363281 6.363281 C 3.441406 6.3125 3.523438 6.257812 3.605469 6.207031 L 3.851562 6.054688 C 4.179688 5.851562 4.511719 5.660156 4.84375 5.476562 C 4.925781 5.429688 5.011719 5.386719 5.097656 5.34375 L 5.347656 5.214844 L 5.605469 5.09375 C 5.691406 5.054688 5.773438 5.011719 5.859375 4.976562 L 6.117188 4.867188 C 6.203125 4.828125 6.292969 4.796875 6.378906 4.761719 C 6.550781 4.691406 6.726562 4.636719 6.898438 4.574219 C 6.988281 4.542969 7.074219 4.519531 7.164062 4.492188 L 7.292969 4.449219 L 7.425781 4.414062 C 7.515625 4.394531 7.601562 4.367188 7.691406 4.347656 L 7.953125 4.289062 C 8.304688 4.21875 8.65625 4.171875 9.011719 4.152344 C 9.703125 4.109375 10.386719 4.1875 11.050781 4.386719 C 11.378906 4.484375 11.695312 4.609375 12 4.761719 C 12.074219 4.800781 12.148438 4.84375 12.226562 4.878906 C 12.300781 4.917969 12.375 4.96875 12.449219 5.007812 C 12.519531 5.050781 12.59375 5.101562 12.664062 5.148438 L 12.773438 5.222656 C 12.808594 5.246094 12.84375 5.269531 12.878906 5.296875 C 13.160156 5.5 13.425781 5.722656 13.679688 5.960938 C 13.808594 6.085938 13.933594 6.210938 14.050781 6.335938 C 14.167969 6.464844 14.285156 6.601562 14.402344 6.738281 C 14.628906 7.011719 14.839844 7.296875 15.039062 7.59375 C 15.136719 7.742188 15.230469 7.894531 15.320312 8.046875 C 15.34375 8.09375 15.371094 8.140625 15.398438 8.1875 C 15.214844 8.210938 15.035156 8.238281 14.855469 8.273438 C 14.589844 8.320312 14.328125 8.382812 14.0625 8.457031 C 13.933594 8.496094 13.800781 8.539062 13.667969 8.585938 C 13.535156 8.632812 13.402344 8.683594 13.277344 8.746094 C 13.40625 8.796875 13.542969 8.839844 13.679688 8.875 C 13.816406 8.910156 13.949219 8.945312 14.082031 8.972656 C 14.351562 9.027344 14.621094 9.066406 14.886719 9.09375 C 15.417969 9.148438 15.953125 9.167969 16.488281 9.144531 C 17.019531 9.125 17.550781 9.066406 18.078125 8.972656 C 18.34375 8.921875 18.605469 8.859375 18.871094 8.785156 C 19 8.746094 19.132812 8.703125 19.265625 8.65625 C 19.398438 8.609375 19.53125 8.558594 19.65625 8.496094 C 19.523438 8.445312 19.390625 8.402344 19.253906 8.367188 C 19.117188 8.328125 18.984375 8.296875 18.851562 8.269531 C 18.582031 8.214844 18.3125 8.171875 18.046875 8.144531 C 17.824219 8.121094 17.605469 8.105469 17.386719 8.097656 L 17.398438 8.050781 C 17.425781 7.96875 17.453125 7.878906 17.480469 7.792969 C 17.539062 7.621094 17.609375 7.449219 17.679688 7.277344 C 17.753906 7.109375 17.835938 6.9375 17.917969 6.769531 C 18.003906 6.605469 18.09375 6.441406 18.1875 6.277344 C 18.378906 5.953125 18.585938 5.644531 18.816406 5.34375 C 19.042969 5.046875 19.289062 4.765625 19.554688 4.496094 C 20.609375 3.425781 21.941406 2.621094 23.410156 2.105469 C 24.152344 1.847656 24.914062 1.652344 25.691406 1.515625 C 26.484375 1.382812 27.285156 1.296875 28.089844 1.261719 C 28.898438 1.222656 29.714844 1.222656 30.539062 1.257812 C 31.359375 1.292969 32.1875 1.355469 33.019531 1.429688 C 32.230469 1.144531 31.433594 0.90625 30.617188 0.722656 Z M 30.617188 0.722656 " fill-opacity="1" fill-rule="nonzero"/></g></g></g></g></svg>